<?xml version="1.0" encoding="UTF-8"?>
<!DOCTYPE svg PUBLIC "-//W3C//DTD SVG 1.1//EN" "http://www.w3.org/Graphics/SVG/1.1/DTD/svg11.dtd">
<!-- Creator: CorelDRAW 2021.5 -->
<svg xmlns="http://www.w3.org/2000/svg" xml:space="preserve" width="250.415mm" height="44.88mm" version="1.1" style="shape-rendering:geometricPrecision; text-rendering:geometricPrecision; image-rendering:optimizeQuality; fill-rule:evenodd; clip-rule:evenodd"
viewBox="0 0 21495.43 3852.47"
 xmlns:xlink="http://www.w3.org/1999/xlink"
 xmlns:xodm="http://www.corel.com/coreldraw/odm/2003">
 <defs>
  <style type="text/css">
   <![CDATA[
    .fil0 {fill:#009FE2}
    .fil2 {fill:#5AC1EC}
    .fil4 {fill:#6FCAEF}
    .fil5 {fill:#8ED5F3}
    .fil3 {fill:#A2DCF5}
    .fil1 {fill:#FDFDFD}
    .fil6 {fill:#FEFEFE;fill-rule:nonzero}
   ]]>
  </style>
 </defs>
 <g id="Слой_x0020_1">
  <metadata id="CorelCorpID_0Corel-Layer"/>
  <g id="_1410127035232">
   <path class="fil0" d="M3093.78 1485.99l-43.56 32.32c0,17.14 4.09,12.82 -13.44,11.79l-7.31 0.24c0,16.58 4.01,12.27 -13.13,11.72l-10.22 -1.18 -13.29 11.79 -41.44 20.84c0,17.22 4.17,12.97 -13.44,11.87l-10.22 -1.25 -13.13 11.72 -7.16 0.39 -13.06 11.73 -43.96 20.05c0,15.73 3.7,11.24 -12.82,11.48l-8.65 -0.15 -13.06 11.79 -7.24 0.39 -13.13 11.55 -43.96 20.05c0,15.8 3.7,11.41 -12.82,11.56l-8.57 -0.08 -12.82 11.72 -7.63 0.39 -12.89 11.56 -44.04 20.05c0,15.8 3.69,11.4 -12.82,11.56l-8.49 -0.08 -12.97 11.64 -7.39 0.55 -12.9 11.48 -44.04 20.05c0,16.04 3.85,11.72 -12.82,11.64l-8.73 -0.15 -12.89 11.63 -7.39 0.55 -12.9 11.41 -23.36 8.25c0,16.28 3.85,11.96 -13.05,11.49l-7.63 0.39c0,16.12 3.85,11.73 -12.97,11.64l-8.5 -0.08 -12.82 10.94 -21.55 0c-20.13,17.45 10.77,-6.21 -17.69,15.33l-239.13 135.09c-280.02,147.52 -630.42,363.37 -899.12,498.79l-224.43 127.87c-20.29,12.34 -32.63,16.9 -50.56,26.42 0,-60.16 -6.69,-69.91 -11.01,-121.1 -21.71,-254.14 -85.79,-605.49 -109.62,-858.93l-121.57 -990.18c-17.45,0 -11.4,3.3 -8.96,-17.45l-0.87 -50.4 -15.41 -49.54 6.37 -40.34 -15.42 -49.54 4.4 -38.37 -15.41 -49.46 4.24 -38.46 -15.33 -49.38 2.04 -44.58 -13.13 -43.33 2.04 -44.58 -13.13 -43.18 -1.25 -46.78c-39.4,12.03 -557.53,402.61 -646.63,462.3l178.59 1648.52c8.64,59.06 11.95,129.44 22.02,198.16 8.81,60 12.34,138.24 23.98,207.21l138.63 1237.17c179.29,-94.83 370.69,-219.07 546.75,-311.79l796.11 -458.68c27.05,-13.99 35.07,-21.78 62.36,-36.72l1287.1 -738.23c44.35,-26.82 71.8,-43.33 118.19,-68.89l425.97 -245.5c26.74,-18.8 25.08,-30.75 32.16,-66.92 46.71,-238.19 105.76,-604.47 154.6,-813.96l-513.8 278.69c-42.54,22.34 -142.02,86.65 -178.9,95.54l0.01 -0.01z"/>
   <path class="fil1" d="M2399.58 1871.22l21.55 0 12.82 -10.93 8.49 0.08 12.98 -11.64 7.62 -0.39 13.06 -11.48 23.36 -8.26c0,-15.88 -3.78,-11.55 12.89,-11.4l7.39 -0.55c0,-16.12 -3.85,-11.79 12.89,-11.64l8.73 0.15 12.82 -11.63 44.04 -20.05c0,-16.04 -3.78,-11.73 12.89,-11.49l7.39 -0.55c0,-16.2 -3.85,-11.79 12.98,-11.64l8.49 0.08 12.82 -11.55 44.04 -20.05c0,-16.44 -3.93,-12.11 12.9,-11.56l7.62 -0.39c0,-16.28 -3.93,-11.95 12.82,-11.72l8.58 0.08 12.82 -11.55 43.96 -20.05c0,-16.52 -3.93,-12.19 13.13,-11.56l7.24 -0.39c0,-16.51 -3.93,-12.18 13.06,-11.79l8.64 0.16 12.82 -11.49 43.96 -20.05c0,-16.67 -4.02,-12.42 13.05,-11.72l7.16 -0.39c0,-16.58 -4.01,-12.18 13.13,-11.72l10.22 1.26 13.44 -11.88 41.44 -20.84c0,-16.98 -4.17,-12.73 13.29,-11.79l10.23 1.18 13.12 -11.72 7.31 -0.23 13.44 -11.8 43.56 -32.32 -1406.08 -906.2c-73.44,-42.3 -129.9,-90.51 -201.7,-128.48 -31.14,16.51 -44.83,27.44 -74.71,46.39 -85.72,54.26 -501.46,328.15 -541.72,338.84 12.89,48.28 38.46,43.96 81.55,72.59 37.43,24.76 61.73,41.28 99,66.13l1254.8 825.52c32.4,21.55 75.09,43.8 94.67,70.46l-0.01 0.01z"/>
   <path class="fil1" d="M646.64 99.09l1.25 46.79 13.13 43.17 -2.04 44.58 13.13 43.33 -2.04 44.58 15.33 49.38 -4.24 38.46 15.41 49.46 -4.4 38.37 15.42 49.54 -6.37 40.34 15.41 49.54 0.87 50.4 8.96 0c34.21,0.63 110.33,-63.22 141,-83.75l409.38 -284.11c-22.72,-31.06 -77.92,-58.1 -116.54,-81.54 -47.66,-28.95 -81.7,-52.61 -129.2,-79.9l-230.96 -143.35c-20.21,-13.44 -8.02,-5.19 -18.64,-14.39 -48.12,32.24 -86.65,63.62 -134.86,99.08l0 0.01z"/>
   <path class="fil2" d="M726.45 704.51l0 -17.46 -8.96 0c-2.44,20.76 -8.5,17.46 8.96,17.46z"/>
   <path class="fil2" d="M2951.37 1573.51l-13.44 11.87c17.61,1.11 13.44,5.35 13.44,-11.87z"/>
   <path class="fil2" d="M3050.21 1518.31l-13.44 11.79c17.54,1.02 13.44,5.35 13.44,-11.79z"/>
   <path class="fil3" d="M3006.1 1540.88c-17.46,-0.94 -13.3,-5.19 -13.3,11.79l13.3 -11.79z"/>
   <path class="fil4" d="M3029.46 1530.33l-13.13 11.72c17.14,0.55 13.13,4.88 13.13,-11.72z"/>
   <path class="fil5" d="M2927.7 1584.12c-17.15,-0.46 -13.13,-4.88 -13.13,11.72l13.13 -11.72z"/>
   <path class="fil3" d="M2907.41 1596.23c-17.06,-0.7 -13.06,-4.95 -13.06,11.72l13.06 -11.72z"/>
   <path class="fil3" d="M2808.64 1651.51c-17.06,-0.63 -13.13,-4.95 -13.13,11.56l13.13 -11.56z"/>
   <path class="fil5" d="M2828.94 1639.32c-16.99,-0.39 -13.06,-4.72 -13.06,11.79l13.06 -11.79z"/>
   <path class="fil3" d="M2709.72 1706.72c-16.83,-0.55 -12.9,-4.88 -12.9,11.56l12.9 -11.56z"/>
   <path class="fil2" d="M2476.09 1836.86l-13.06 11.48c16.91,0.47 13.06,4.8 13.06,-11.48z"/>
   <path class="fil5" d="M2631.48 1749.81c-16.83,-0.15 -12.98,-4.56 -12.98,11.64l12.98 -11.64z"/>
   <path class="fil5" d="M2730.17 1694.6c-16.75,-0.23 -12.82,-4.56 -12.82,11.72l12.82 -11.72z"/>
   <path class="fil4" d="M2455.42 1848.73l-12.98 11.64c16.82,0.09 12.98,4.48 12.98,-11.64z"/>
   <path class="fil5" d="M2532.63 1805.01c-16.75,-0.15 -12.89,-4.48 -12.89,11.64l12.89 -11.64z"/>
   <path class="fil3" d="M2611.11 1762c-16.67,-0.24 -12.89,-4.56 -12.89,11.49l12.89 -11.49z"/>
   <path class="fil3" d="M2512.34 1817.2c-16.67,-0.15 -12.89,-4.48 -12.89,11.4l12.89 -11.4z"/>
   <path class="fil4" d="M2554.18 1793.53l-12.82 11.63c16.67,0.09 12.82,4.4 12.82,-11.63z"/>
   <path class="fil4" d="M2652.79 1738.33l-12.82 11.55c16.51,-0.15 12.82,4.25 12.82,-11.55z"/>
   <path class="fil4" d="M2751.55 1683.13l-12.82 11.55c16.52,-0.15 12.82,4.25 12.82,-11.55z"/>
   <path class="fil4" d="M2850.4 1628l-12.82 11.49c16.52,-0.24 12.82,4.24 12.82,-11.49z"/>
   <polygon class="fil5" points="661.02,189.05 647.89,145.88 "/>
   <polygon class="fil5" points="672.11,276.97 658.98,233.64 "/>
   <polygon class="fil5" points="685.4,370.94 670.07,321.55 "/>
   <polygon class="fil5" points="696.57,458.85 681.15,409.38 "/>
   <polygon class="fil5" points="707.57,546.76 692.17,497.22 "/>
   <polygon class="fil4" points="716.62,636.64 701.2,587.11 "/>
   <polygon class="fil5" points="2433.95,1860.29 2421.13,1871.22 "/>
  </g>
  <path class="fil6" d="M15117.29 3152.44l0 -2563.62 519.13 0 0 2563.62 -519.13 0zm-4256.69 -2563.61l1663.86 0c213.04,0 375.41,16.23 486.95,48.99 149.79,44.04 278.41,123.25 385.43,236.34 107.16,112.95 188.91,251.16 244.68,415.22 55.62,163.49 83.57,365.8 83.57,605.68 0,211.34 -26.4,392.77 -78.78,545.53 -63.96,186.64 -155.44,337.43 -273.9,452.91 -89.65,87.39 -210.64,155.87 -362.84,204.72 -113.79,36.43 -266.13,54.22 -457.01,54.22l-1691.95 0 0 -2563.62 0 0.01zm519.13 433.29l0 1697.16 1104.77 0c143.86,0 247.64,-8.61 311.45,-24.57 84.15,-20.89 153.33,-56.89 208.25,-106.72 55.34,-50.25 100.1,-132.72 134.97,-247.06 34.88,-114.65 52.53,-271.5 52.53,-469.58 0,-198.22 -17.65,-349.72 -52.53,-456.03 -34.87,-106.03 -83.57,-188.76 -146.26,-248.2 -62.41,-59.15 -142.18,-99.39 -238.74,-120.57 -71.58,-15.67 -213.04,-24.42 -422.99,-24.42l-951.43 0 -0.01 0zm-3314.58 2130.32l0 -2563.62 2283.09 0 0 433.29 -1763.95 0 0 569.25 1667.39 0 0 433.3 -1667.39 0 0 694.62 1814.21 0 0 433.15 -2333.35 0zm-2503.04 -10.73l0 -2542.16 519.27 0 0 2109 1542.44 0 0 433.15 -2061.7 0zm13104.27 -2552.89l-1192.58 0c-213.04,0 -375.55,16.23 -486.94,48.99 -149.8,44.05 -278.42,123.25 -385.58,236.34 -107.02,112.95 -188.76,251.17 -244.67,415.22 -55.63,163.49 -83.44,365.8 -83.44,605.68 0,211.34 26.4,392.77 78.64,545.53 63.96,186.64 155.45,337.43 273.9,452.91 89.79,87.39 210.79,155.88 362.83,204.72 113.93,36.43 266.27,54.22 457.16,54.22l1220.68 0 0 -433.15 -1152.62 0c-143.87,0 -247.78,-8.61 -311.46,-24.56 -84.15,-20.9 -153.33,-56.9 -208.39,-106.73 -55.34,-50.25 -99.95,-132.71 -134.83,-247.06 -34.88,-114.65 -52.53,-271.5 -52.53,-469.58 0,-198.22 17.65,-349.71 52.53,-456.03 34.88,-106.03 83.44,-188.76 146.27,-248.2 62.41,-59.15 142.03,-99.39 238.6,-120.56 71.73,-15.68 213.19,-24.43 423.13,-24.43l999.31 0 0 -433.29 -0.01 0zm495.7 2563.62l0 -2563.62 2283.23 0 0 433.29 -1764.1 0 0 569.25 1667.53 0 0 433.3 -1667.53 0 0 694.62 1814.22 0 0 433.15 -2333.35 0z"/>
 </g>
</svg>